<?xml version="1.0" encoding="utf-8"?>
<!-- Generator: Adobe Illustrator 18.0.0, SVG Export Plug-In . SVG Version: 6.00 Build 0)  -->
<!DOCTYPE svg PUBLIC "-//W3C//DTD SVG 1.1//EN" "http://www.w3.org/Graphics/SVG/1.1/DTD/svg11.dtd">
<svg version="1.1" id="Layer_1" xmlns="http://www.w3.org/2000/svg" xmlns:xlink="http://www.w3.org/1999/xlink" x="0px" y="0px"
	 viewBox="0 8 14 12.6" enable-background="new 0 8 14 12.6" xml:space="preserve">
<g>
	<path fill="#63D0EC" d="M11.9,20.5H1.7c-1,0-1.7-0.7-1.7-1.7v-8.1c0-1,0.7-1.7,1.7-1.7h10.2c1,0,1.7,0.7,1.7,1.7v8.1
		C13.6,19.8,12.8,20.5,11.9,20.5z M1.7,10.5c-0.1,0-0.2,0.1-0.2,0.2v8.1c0,0.1,0.1,0.2,0.2,0.2h10.2c0.1,0,0.2-0.1,0.2-0.2v-8.1
		c0-0.1-0.1-0.2-0.2-0.2C11.9,10.5,1.7,10.5,1.7,10.5z"/>
</g>
<g>
	<rect x="2.9" y="11.7" fill="#63D0EC" width="1.1" height="1.1"/>
</g>
<rect x="2.8" y="8" fill="#63D0EC" width="1.2" height="2.9"/>
<path fill="#FFFFFF" d="M4.1,11H2.7V8h1.4V11z M2.9,10.8h1V8.1h-1V10.8z"/>
<rect x="9.5" y="8" fill="#63D0EC" width="1.2" height="2.9"/>
<path fill="#FFFFFF" d="M10.8,11H9.4V8h1.4V11z M9.5,10.8h1V8.1h-1V10.8z"/>
<g>
	<rect x="5.1" y="11.7" fill="#63D0EC" width="1.1" height="1.1"/>
</g>
<g>
	<rect x="7.3" y="11.7" fill="#63D0EC" width="1.1" height="1.1"/>
</g>
<g>
	<rect x="9.5" y="11.7" fill="#63D0EC" width="1.1" height="1.1"/>
</g>
<g>
	<g>
		<rect x="2.9" y="14.2" fill="#63D0EC" width="1.1" height="1.1"/>
	</g>
	<g>
		<rect x="5.1" y="14.2" fill="#63D0EC" width="1.1" height="1.1"/>
	</g>
	<g>
		<rect x="7.3" y="14.2" fill="#63D0EC" width="1.1" height="1.1"/>
	</g>
	<g>
		<rect x="9.5" y="14.2" fill="#63D0EC" width="1.1" height="1.1"/>
	</g>
</g>
<g>
	<g>
		<rect x="2.9" y="16.7" fill="#63D0EC" width="1.1" height="1.1"/>
	</g>
	<g>
		<rect x="5.1" y="16.7" fill="#63D0EC" width="1.1" height="1.1"/>
	</g>
</g>
</svg>
