<?xml version="1.0" encoding="utf-8"?>
<!-- Generator: Adobe Illustrator 18.0.0, SVG Export Plug-In . SVG Version: 6.00 Build 0)  -->
<!DOCTYPE svg PUBLIC "-//W3C//DTD SVG 1.1//EN" "http://www.w3.org/Graphics/SVG/1.1/DTD/svg11.dtd">
<svg version="1.1" id="Layer_1" xmlns="http://www.w3.org/2000/svg" xmlns:xlink="http://www.w3.org/1999/xlink" x="0px" y="0px"
	 viewBox="0 0 22 22" enable-background="new 0 0 22 22" xml:space="preserve">
<g>
	<path fill="#68CCE8" stroke="#68CCE8" stroke-miterlimit="10" d="M10.3,15.4l-0.8-2.3H6.3l-0.8,2.3H4.1l3-8.2h1.5l3,8.2H10.3z
		 M9.1,12L8.3,9.8C8.3,9.6,8.2,9.4,8.1,9C8,8.7,8,8.5,7.9,8.4C7.8,8.8,7.6,9.3,7.4,9.9L6.7,12H9.1z"/>
</g>
<g>
	<path fill="#68CCE8" d="M21.3,19.8H0.7C0.4,19.8,0,19.5,0,19V3c0-0.4,0.3-0.7,0.7-0.7h20.5C21.7,2.2,22,2.6,22,3v16
		C22,19.4,21.7,19.8,21.3,19.8z M1.5,18.3h19.2V3.6H1.5V18.3z"/>
</g>
<g>
	<path fill="#68CCE8" stroke="#68CCE8" stroke-miterlimit="10" d="M16,9.1c0.7,0,1.4,0.3,1.8,0.8c0.5,0.5,0.6,1.4,0.6,2.4
		s-0.2,1.8-0.6,2.4c-0.5,0.6-1,0.8-1.8,0.8c-0.7,0-1.4-0.3-1.8-0.8h-0.1l-0.3,0.7h-1V6.7h1.3v2c0,0.2,0,0.4,0,0.6s0,0.5,0,0.6h0.1
		C14.7,9.4,15.2,9.1,16,9.1z M15.7,10.2c-0.6,0-0.9,0.2-1.1,0.5c-0.3,0.3-0.4,0.8-0.4,1.6v0.1c0,0.7,0.1,1.3,0.4,1.6
		c0.3,0.4,0.6,0.5,1.2,0.5c0.5,0,0.8-0.2,1-0.6c0.2-0.4,0.4-0.9,0.4-1.6C17.1,10.9,16.7,10.2,15.7,10.2z"/>
</g>
</svg>
