<?xml version="1.0" encoding="utf-8"?>
<!-- Generator: Adobe Illustrator 18.0.0, SVG Export Plug-In . SVG Version: 6.00 Build 0)  -->
<!DOCTYPE svg PUBLIC "-//W3C//DTD SVG 1.1//EN" "http://www.w3.org/Graphics/SVG/1.1/DTD/svg11.dtd">
<svg version="1.1" xmlns="http://www.w3.org/2000/svg" xmlns:xlink="http://www.w3.org/1999/xlink" x="0px" y="0px"
	 viewBox="0 0 414.9 851.8" enable-background="new 0 0 414.9 851.8" xml:space="preserve">
<g id="mockup">
	<path fill-rule="evenodd" clip-rule="evenodd" fill="#E0E0E0" d="M68.1,850.1c-36.7,0-66.5-29.9-66.5-66.5V68
		c0-36.7,29.9-66.5,66.5-66.5h278.7c36.7,0,66.5,29.9,66.5,66.5v715.5c0,36.7-29.9,66.5-66.5,66.5H68.1z"/>
	<path fill="#E0E0E0" d="M346.8,3c35.9,0,65,29.1,65,65v715.5c0,35.9-29.1,65-65,65H68.1c-35.9,0-65-29.1-65-65V68
		c0-35.9,29.1-65,65-65H346.8 M346.8,0H68.1c-37.5,0-68,30.5-68,68v715.5c0,37.5,30.5,68,68,68h278.7c37.5,0,68-30.5,68-68V68
		C414.9,30.5,384.4,0,346.8,0L346.8,0z"/>
	<g id="Ellipse_2_2_">
		<g>
			<linearGradient id="SVGID_1_" gradientUnits="userSpaceOnUse" x1="207.9407" y1="835.2349" x2="207.9407" y2="775.9731">
				<stop  offset="0" style="stop-color:#E9E9E9"/>
				<stop  offset="1" style="stop-color:#CBCBCB"/>
			</linearGradient>
			<path fill-rule="evenodd" clip-rule="evenodd" fill="url(#SVGID_1_)" d="M207.9,835.2c-16.3,0-29.6-13.3-29.6-29.6
				s13.3-29.6,29.6-29.6c16.3,0,29.6,13.3,29.6,29.6S224.3,835.2,207.9,835.2z"/>
		</g>
		<g>
			<linearGradient id="SVGID_2_" gradientUnits="userSpaceOnUse" x1="207.9407" y1="836.7349" x2="207.9407" y2="774.4734">
				<stop  offset="0" style="stop-color:#E9E9E9"/>
				<stop  offset="1" style="stop-color:#CBCBCB"/>
			</linearGradient>
			<path fill="url(#SVGID_2_)" d="M207.9,777.5c15.5,0,28.1,12.6,28.1,28.1c0,15.5-12.6,28.1-28.1,28.1s-28.1-12.6-28.1-28.1
				C179.8,790.1,192.4,777.5,207.9,777.5 M207.9,774.5c-17.2,0-31.1,13.9-31.1,31.1c0,17.2,13.9,31.1,31.1,31.1s31.1-13.9,31.1-31.1
				C239.1,788.4,225.1,774.5,207.9,774.5L207.9,774.5z"/>
		</g>
	</g>
	<g id="Rectangle_2">
		<path fill-rule="evenodd" clip-rule="evenodd" fill="#B2B2B2" d="M239.2,45.5h-63.4c-1.9,0-3.4,1.5-3.4,3.4v0.8
			c0,1.9,1.5,3.4,3.4,3.4h63.4c1.9,0,3.4-1.5,3.4-3.4v-0.8C242.5,47,241,45.5,239.2,45.5z"/>
	</g>
	<g id="Ellipse_1_2_">
		<circle fill-rule="evenodd" clip-rule="evenodd" fill="#E0E0E0" cx="139.6" cy="49.3" r="7.4"/>
	</g>
	<g id="Ellipse_1_copy">
		<circle fill-rule="evenodd" clip-rule="evenodd" fill="#E0E0E0" cx="207.5" cy="17.8" r="4.9"/>
	</g>
	<path fill="none" d="M395,90.2H20c-1.7,0-3,1.3-3,3v667c0,1.7,1.3,3,3,3h375c1.7,0,3-1.3,3-3v-667C398,91.5,396.6,90.2,395,90.2z"
		/>
	<g>
		<rect x="20" y="93.2" fill="#FFFFFF" width="375" height="667"/>
	</g>
	<g id="Ellipse_2_1_">
		<g>
			<path fill-rule="evenodd" clip-rule="evenodd" fill="none" d="M207.9,835.2c-16.3,0-29.6-13.3-29.6-29.6s13.3-29.6,29.6-29.6
				c16.3,0,29.6,13.3,29.6,29.6S224.3,835.2,207.9,835.2z"/>
		</g>
		<g>
			<path fill="none" d="M207.9,777.5c15.5,0,28.1,12.6,28.1,28.1c0,15.5-12.6,28.1-28.1,28.1s-28.1-12.6-28.1-28.1
				C179.8,790.1,192.4,777.5,207.9,777.5 M207.9,774.5c-17.2,0-31.1,13.9-31.1,31.1c0,17.2,13.9,31.1,31.1,31.1s31.1-13.9,31.1-31.1
				C239.1,788.4,225.1,774.5,207.9,774.5L207.9,774.5z"/>
		</g>
	</g>
</g>
<g id="screen">
</g>
</svg>
