<?xml version="1.0" encoding="utf-8"?>
<!-- Generator: Adobe Illustrator 18.0.0, SVG Export Plug-In . SVG Version: 6.00 Build 0)  -->
<!DOCTYPE svg PUBLIC "-//W3C//DTD SVG 1.1//EN" "http://www.w3.org/Graphics/SVG/1.1/DTD/svg11.dtd">
<svg version="1.1" id="Layer_1" xmlns="http://www.w3.org/2000/svg" xmlns:xlink="http://www.w3.org/1999/xlink" x="0px" y="0px"
	 viewBox="0 0 52 41.8" enable-background="new 0 0 52 41.8" xml:space="preserve">
<rect x="20.2" y="8.6" transform="matrix(0.5057 0.8627 -0.8627 0.5057 33.4416 -19.7602)" fill="#E0F3FB" width="27.5" height="21.4"/>
<g>
	<path fill="#9EDDF9" d="M30.8,37.5L16.4,12.8c-0.3-0.5-0.1-1.1,0.4-1.4L36,0.1c0.5-0.3,1.1-0.1,1.4,0.4l14.5,24.7
		c0.3,0.5,0.1,1.1-0.4,1.4L32.2,37.8C31.7,38.1,31.1,37.9,30.8,37.5z M18.6,12.6l13.5,23l17.6-10.3l-13.5-23L18.6,12.6z"/>
</g>
<polygon fill="#9EDDF9" points="29,13.9 32.7,18.9 36.2,19.2 41.4,20.4 38.5,29.5 33,32.7 21.5,13.1 "/>
<circle fill="#9EDDF9" cx="34.4" cy="10.7" r="2.7"/>
<rect x="5.3" y="12" transform="matrix(0.766 0.6429 -0.6429 0.766 19.074 -6.9254)" fill="#E0F3FB" width="27.5" height="21.4"/>
<g>
	<g>
		<path fill="#9EDDF9" d="M22.1,41.5L0.5,22.8c-0.4-0.4-0.5-1-0.1-1.4L15,4.5c0.4-0.4,1-0.5,1.4-0.1L38,23.2c0.4,0.4,0.5,1,0.1,1.4
			L23.5,41.4C23.1,41.8,22.5,41.9,22.1,41.5z M2.5,21.9l20.1,17.4L36,24L15.9,6.6L2.5,21.9z"/>
	</g>
	<polygon fill="#9EDDF9" points="12.8,19.7 17.9,23.4 21.3,22.5 26.7,22 26.8,31.5 22.6,36.3 5.5,21.4 	"/>
	<circle fill="#9EDDF9" cx="16.9" cy="15" r="2.7"/>
</g>
</svg>
