<?xml version="1.0" encoding="utf-8"?>
<!-- Generator: Adobe Illustrator 18.0.0, SVG Export Plug-In . SVG Version: 6.00 Build 0)  -->
<!DOCTYPE svg PUBLIC "-//W3C//DTD SVG 1.1//EN" "http://www.w3.org/Graphics/SVG/1.1/DTD/svg11.dtd">
<svg version="1.1" id="Layer_1" xmlns="http://www.w3.org/2000/svg" xmlns:xlink="http://www.w3.org/1999/xlink" x="0px" y="0px"
	 viewBox="0 0 22 22" enable-background="new 0 0 22 22" xml:space="preserve">
<path fill="#68CCE8" stroke="#68CCE8" stroke-miterlimit="10" d="M11.6,15.4h-1.4v-3.7H6.5v3.7H5.2V7.3h1.3v3.3h3.8V7.3h1.4V15.4z"
	/>
<path fill="#68CCE8" stroke="#68CCE8" stroke-miterlimit="10" d="M17.1,15.4h-1.3v-5.2c0-0.6,0-1.1,0-1.5c-0.1,0.1-0.2,0.2-0.3,0.3
	c-0.1,0.1-0.6,0.5-1.3,1l-0.6-0.8L16,7.3h1.1C17.1,7.3,17.1,15.4,17.1,15.4z"/>
<g>
	<path fill="#68CCE8" d="M21.3,19.8H0.7C0.4,19.8,0,19.5,0,19V3c0-0.4,0.3-0.7,0.7-0.7h20.5C21.7,2.2,22,2.6,22,3v16
		C22,19.4,21.7,19.8,21.3,19.8z M1.5,18.3h19.2V3.6H1.5V18.3z"/>
</g>
</svg>
