<?xml version="1.0" encoding="utf-8"?>
<!-- Generator: Adobe Illustrator 18.0.0, SVG Export Plug-In . SVG Version: 6.00 Build 0)  -->
<!DOCTYPE svg PUBLIC "-//W3C//DTD SVG 1.1//EN" "http://www.w3.org/Graphics/SVG/1.1/DTD/svg11.dtd">
<svg version="1.1" id="Layer_1" xmlns="http://www.w3.org/2000/svg" xmlns:xlink="http://www.w3.org/1999/xlink" x="0px" y="0px"
	 viewBox="0 0 50 50" enable-background="new 0 0 50 50" xml:space="preserve">
<path id="Google_x2B__21_" fill="#AAAAAA" d="M26.5,37.1c0-0.4,0-0.7-0.1-1c-0.1-0.3-0.1-0.6-0.2-0.9c-0.1-0.3-0.2-0.6-0.4-0.9
	c-0.2-0.3-0.4-0.6-0.5-0.8c-0.1-0.2-0.4-0.5-0.7-0.7c-0.3-0.3-0.5-0.5-0.7-0.6c-0.2-0.1-0.4-0.4-0.8-0.6c-0.4-0.3-0.6-0.5-0.8-0.6
	c-0.2-0.1-0.4-0.3-0.8-0.6c-0.4-0.3-0.6-0.5-0.8-0.5c-0.3,0-0.7-0.1-1.2-0.1c-0.9,0-1.8,0.1-2.7,0.2c-0.9,0.1-1.8,0.3-2.7,0.6
	c-0.9,0.3-1.7,0.7-2.5,1.1c-0.7,0.5-1.3,1.1-1.7,1.9c-0.5,0.8-0.7,1.7-0.7,2.7c0,1.1,0.3,2.1,0.9,3c0.6,0.9,1.4,1.6,2.3,2.1
	c1,0.5,2,0.9,3,1.1c1,0.2,2.1,0.4,3.2,0.4c1,0,1.9-0.1,2.8-0.3c0.9-0.2,1.7-0.5,2.5-1c0.8-0.4,1.4-1.1,1.9-1.8
	C26.3,39.1,26.5,38.2,26.5,37.1 M23.5,15.6c0-1-0.1-2.1-0.4-3.2c-0.3-1.1-0.7-2.2-1.2-3.3c-0.5-1.1-1.2-1.9-2.1-2.6
	c-0.9-0.7-1.9-1-3-1c-1.6,0-2.7,0.6-3.6,1.7C12.4,8.4,12,9.8,12,11.4c0,0.8,0.1,1.6,0.3,2.5c0.2,0.9,0.5,1.7,0.9,2.6
	c0.4,0.9,0.9,1.7,1.4,2.3c0.6,0.7,1.2,1.3,2,1.7c0.8,0.4,1.6,0.6,2.4,0.6c1.6,0,2.8-0.5,3.5-1.5C23.1,18.6,23.5,17.2,23.5,15.6
	 M20.2,3.7h10.9l-3.4,2h-3.4c1.2,0.7,2.1,1.8,2.8,3.1c0.6,1.4,1,2.8,1,4.2c0,1.2-0.2,2.3-0.6,3.3c-0.4,1-0.8,1.7-1.4,2.3
	c-0.5,0.6-1.1,1.1-1.6,1.6c-0.6,0.5-1,1-1.4,1.5c-0.4,0.5-0.6,1.1-0.6,1.7c0,0.4,0.1,0.9,0.4,1.3c0.3,0.4,0.6,0.8,1.1,1.2
	c0.5,0.4,0.9,0.8,1.5,1.2c0.5,0.4,1.1,0.9,1.6,1.4c0.5,0.5,1,1,1.4,1.6c0.5,0.6,0.8,1.3,1.1,2.1C29.9,33.1,30,34,30,35
	c0,2.7-1.2,5-3.5,7c-2.5,2.2-6,3.3-10.5,3.3c-1,0-2-0.1-3-0.3c-1-0.2-2-0.4-3-0.8c-1-0.4-1.9-0.9-2.7-1.4c-0.8-0.6-1.4-1.3-1.9-2.2
	c-0.5-0.9-0.8-1.9-0.8-3c0-1,0.3-2.1,0.9-3.4c0.5-1.1,1.3-2,2.4-2.8c1.1-0.8,2.3-1.4,3.6-1.8c1.3-0.4,2.6-0.7,3.9-0.9
	c1.2-0.2,2.5-0.3,3.7-0.3c-1.1-1.4-1.6-2.6-1.6-3.7c0-0.2,0-0.4,0.1-0.6c0-0.2,0.1-0.3,0.1-0.5c0.1-0.1,0.1-0.3,0.2-0.5
	c0.1-0.2,0.1-0.4,0.2-0.5c-0.7,0.1-1.2,0.1-1.7,0.1c-2.5,0-4.6-0.8-6.4-2.5c-1.8-1.6-2.6-3.7-2.6-6.1c0-2.3,0.8-4.4,2.4-6.3
	c1.6-1.8,3.5-3,5.8-3.5C17.1,3.9,18.7,3.7,20.2,3.7 M46.2,10.1v3.2h-6.4v6.4h-3.2v-6.4h-6.4v-3.2h6.4V3.7h3.2v6.4H46.2z"/>
</svg>
