<?xml version="1.0" encoding="utf-8"?>
<!-- Generator: Adobe Illustrator 18.0.0, SVG Export Plug-In . SVG Version: 6.00 Build 0)  -->
<!DOCTYPE svg PUBLIC "-//W3C//DTD SVG 1.1//EN" "http://www.w3.org/Graphics/SVG/1.1/DTD/svg11.dtd">
<svg version="1.1" id="Layer_1" xmlns="http://www.w3.org/2000/svg" xmlns:xlink="http://www.w3.org/1999/xlink" x="0px" y="0px"
	 viewBox="0 0 50 50" enable-background="new 0 0 50 50" xml:space="preserve">
<path id="Instagram_15_" fill-rule="evenodd" clip-rule="evenodd" fill="#AAAAAA" d="M40.6,21.3h-3.6c0.3,1,0.4,2.1,0.4,3.2
	c0,7.1-5.7,12.8-12.8,12.8c-7.1,0-12.8-5.7-12.8-12.8c0-1.1,0.2-2.2,0.4-3.2H8.6v17.6c0,0.9,0.7,1.6,1.6,1.6H39
	c0.9,0,1.6-0.7,1.6-1.6V21.3z M40.6,10.1c0-0.9-0.7-1.6-1.6-1.6h-4.8c-0.9,0-1.6,0.7-1.6,1.6v4.8c0,0.9,0.7,1.6,1.6,1.6H39
	c0.9,0,1.6-0.7,1.6-1.6V10.1z M24.6,16.5c-4.4,0-8,3.6-8,8c0,4.4,3.6,8,8,8c4.4,0,8-3.6,8-8C32.6,20.1,29,16.5,24.6,16.5 M40.6,45.3
	h-32c-2.6,0-4.8-2.1-4.8-4.8v-32c0-2.6,2.1-4.8,4.8-4.8h32c2.6,0,4.8,2.1,4.8,4.8v32C45.4,43.1,43.2,45.3,40.6,45.3"/>
</svg>
