<?xml version="1.0" encoding="utf-8"?>
<!-- Generator: Adobe Illustrator 18.0.0, SVG Export Plug-In . SVG Version: 6.00 Build 0)  -->
<!DOCTYPE svg PUBLIC "-//W3C//DTD SVG 1.1//EN" "http://www.w3.org/Graphics/SVG/1.1/DTD/svg11.dtd">
<svg version="1.1" id="Layer_1" xmlns="http://www.w3.org/2000/svg" xmlns:xlink="http://www.w3.org/1999/xlink" x="0px" y="0px"
	 viewBox="0 0 50 50" enable-background="new 0 0 50 50" xml:space="preserve">
<path id="Pinterest_15_" fill="#AAAAAA" d="M22.1,32.2c-1.1,5.7-2.4,11.2-6.4,14.1c-1.2-8.6,1.8-15.2,3.2-22
	c-2.4-4,0.3-12.1,5.3-10.1c6.2,2.4-5.3,14.9,2.4,16.4c8.1,1.6,11.4-14,6.4-19.1c-7.2-7.3-21.1-0.2-19.4,10.4
	c0.4,2.6,3.1,3.3,1.1,6.9c-4.6-1-6-4.7-5.9-9.6c0.3-8,7.2-13.5,14.1-14.3c8.7-1,16.9,3.2,18,11.4c1.3,9.3-3.9,19.3-13.3,18.6
	C25.2,34.7,24.1,33.4,22.1,32.2"/>
</svg>
