<?xml version="1.0" encoding="utf-8"?>
<!-- Generator: Adobe Illustrator 18.0.0, SVG Export Plug-In . SVG Version: 6.00 Build 0)  -->
<!DOCTYPE svg PUBLIC "-//W3C//DTD SVG 1.1//EN" "http://www.w3.org/Graphics/SVG/1.1/DTD/svg11.dtd">
<svg version="1.1" id="Layer_1" xmlns="http://www.w3.org/2000/svg" xmlns:xlink="http://www.w3.org/1999/xlink" x="0px" y="0px"
	 viewBox="0 0 50 50" enable-background="new 0 0 50 50" xml:space="preserve">
<path id="Twitter_19_" fill="#AAAAAA" d="M46,11.7c-1.5,0.7-3.2,1.1-4.9,1.3c1.8-1.1,3.1-2.7,3.7-4.7c-1.6,1-3.5,1.7-5.4,2.1
	c-1.6-1.7-3.8-2.7-6.2-2.7c-4.7,0-8.5,3.8-8.5,8.5c0,0.7,0.1,1.3,0.2,1.9c-7.1-0.4-13.4-3.7-17.6-8.9c-0.7,1.3-1.2,2.7-1.2,4.3
	c0,3,1.5,5.6,3.8,7.1c-1.4,0-2.7-0.4-3.9-1.1c0,0,0,0.1,0,0.1c0,4.1,2.9,7.6,6.8,8.4c-0.7,0.2-1.5,0.3-2.2,0.3
	c-0.6,0-1.1-0.1-1.6-0.2c1.1,3.4,4.2,5.9,8,5.9c-2.9,2.3-6.6,3.7-10.6,3.7c-0.7,0-1.4,0-2-0.1c3.8,2.4,8.3,3.8,13.1,3.8
	c15.7,0,24.3-13,24.3-24.3c0-0.4,0-0.7,0-1.1C43.4,14.9,44.9,13.4,46,11.7z"/>
</svg>
