<?xml version="1.0" encoding="utf-8"?>
<!-- Generator: Adobe Illustrator 18.0.0, SVG Export Plug-In . SVG Version: 6.00 Build 0)  -->
<!DOCTYPE svg PUBLIC "-//W3C//DTD SVG 1.1//EN" "http://www.w3.org/Graphics/SVG/1.1/DTD/svg11.dtd">
<svg version="1.1" id="Layer_1" xmlns="http://www.w3.org/2000/svg" xmlns:xlink="http://www.w3.org/1999/xlink" x="0px" y="0px"
	 viewBox="0 0 50 50" enable-background="new 0 0 50 50" xml:space="preserve">
<path id="Youtube_5_" fill="#AAAAAA" d="M36.8,33.8h-2.2l0-1.3c0-0.6,0.5-1,1-1h0.1c0.6,0,1,0.5,1,1L36.8,33.8z M28.5,31.1
	c-0.6,0-1,0.4-1,0.8v6.3c0,0.5,0.5,0.8,1,0.8c0.6,0,1-0.4,1-0.8v-6.3C29.5,31.5,29.1,31.1,28.5,31.1z M42,27.6v11.9
	c0,2.9-2.5,5.2-5.5,5.2H13.9c-3,0-5.5-2.3-5.5-5.2V27.6c0-2.9,2.5-5.2,5.5-5.2h22.6C39.5,22.4,42,24.7,42,27.6z M15.4,40.8l0-12.5
	h2.8v-1.9l-7.5,0v1.8l2.3,0v12.6H15.4z M23.8,30.1h-2.3v6.7c0,1,0.1,1.5,0,1.6c-0.2,0.5-1,1.1-1.4,0.1c-0.1-0.2,0-0.7,0-1.6l0-6.7
	h-2.3l0,6.6c0,1,0,1.8,0,2.1c0.1,0.6,0,1.3,0.6,1.7c1.1,0.8,3.1-0.1,3.6-1.2l0,1.4l1.9,0V30.1z M31.3,37.8l0-5.6
	c0-2.1-1.6-3.4-3.7-1.7l0-4.1l-2.3,0l0,14.3l1.9,0l0.2-0.9C29.7,42,31.3,40.5,31.3,37.8z M38.6,37l-1.8,0c0,0.1,0,0.1,0,0.2v1
	c0,0.5-0.4,0.9-1,0.9h-0.3c-0.5,0-1-0.4-1-0.9v-0.1v-1.1v-1.4h4v-1.5c0-1.1,0-2.2-0.1-2.8c-0.3-2-3.1-2.3-4.5-1.3
	c-0.4,0.3-0.8,0.7-1,1.3c-0.2,0.6-0.3,1.4-0.3,2.4V37C32.7,42.6,39.4,41.8,38.6,37z M29.6,19c0.1,0.3,0.3,0.5,0.6,0.7
	c0.3,0.2,0.6,0.3,1,0.3c0.3,0,0.6-0.1,0.9-0.3c0.3-0.2,0.5-0.5,0.7-0.8l0,0.9h2.6V8.7h-2.1v8.6c0,0.5-0.4,0.8-0.9,0.8
	c-0.5,0-0.9-0.4-0.9-0.8V8.7h-2.1v7.5c0,1,0,1.6,0,1.9C29.4,18.4,29.5,18.7,29.6,19z M21.7,12.7c0-1.1,0.1-1.9,0.3-2.5
	c0.2-0.6,0.5-1.1,1-1.4c0.5-0.4,1-0.5,1.8-0.5c0.6,0,1.1,0.1,1.6,0.3c0.4,0.2,0.8,0.5,1,0.9c0.2,0.4,0.4,0.8,0.5,1.2
	c0.1,0.4,0.1,1,0.1,1.8v2.8c0,1,0,1.8-0.1,2.3c-0.1,0.5-0.2,0.9-0.5,1.3c-0.3,0.4-0.6,0.7-1,0.9c-0.4,0.2-0.9,0.3-1.4,0.3
	c-0.6,0-1.1-0.1-1.5-0.3c-0.4-0.2-0.7-0.4-1-0.8c-0.2-0.3-0.4-0.8-0.5-1.2c-0.1-0.5-0.1-1.2-0.1-2.2V12.7z M23.7,17.1
	c0,0.6,0.5,1.1,1,1.1c0.6,0,1-0.5,1-1.1v-5.9c0-0.6-0.5-1.1-1-1.1c-0.6,0-1,0.5-1,1.1V17.1z M16.5,20.1H19l0-8.5l2.9-7.3h-2.7
	l-1.5,5.4l-1.6-5.4h-2.7l3.1,7.3L16.5,20.1z"/>
</svg>
