<?xml version="1.0" encoding="utf-8"?>
<!-- Generator: Adobe Illustrator 18.0.0, SVG Export Plug-In . SVG Version: 6.00 Build 0)  -->
<!DOCTYPE svg PUBLIC "-//W3C//DTD SVG 1.1//EN" "http://www.w3.org/Graphics/SVG/1.1/DTD/svg11.dtd">
<svg version="1.1" id="Layer_1" xmlns="http://www.w3.org/2000/svg" xmlns:xlink="http://www.w3.org/1999/xlink" x="0px" y="0px"
	 viewBox="0 0 32 32" enable-background="new 0 0 32 32" xml:space="preserve">
<path fill="#878787" d="M16,31.9C7.2,31.9,0.1,24.8,0.1,16S7.2,0.1,16,0.1c8.8,0,15.9,7.1,15.9,15.9S24.7,31.9,16,31.9z M16,1.2
	C7.8,1.2,1.2,7.8,1.2,16S7.8,30.8,16,30.8c8.2,0,14.8-6.6,14.8-14.8S24.2,1.2,16,1.2z"/>
<path fill="none" stroke="#878787" stroke-width="1.2" stroke-miterlimit="10" d="M24,20c0,1.1-0.9,2-2,2H10c-1.1,0-2-0.9-2-2v-7.7
	c0-1.1,0.9-2,2-2h12c1.1,0,2,0.9,2,2V20z"/>
<polyline fill="none" stroke="#878787" stroke-width="1.2" stroke-miterlimit="10" points="23.3,10.8 16,16.2 8.6,10.8 "/>
</svg>
