<?xml version="1.0" encoding="utf-8"?>
<!-- Generator: Adobe Illustrator 18.0.0, SVG Export Plug-In . SVG Version: 6.00 Build 0)  -->
<!DOCTYPE svg PUBLIC "-//W3C//DTD SVG 1.1//EN" "http://www.w3.org/Graphics/SVG/1.1/DTD/svg11.dtd">
<svg version="1.1" id="Layer_1" xmlns="http://www.w3.org/2000/svg" xmlns:xlink="http://www.w3.org/1999/xlink" x="0px" y="0px"
	 viewBox="0 0 32 32" enable-background="new 0 0 32 32" xml:space="preserve">
<g>
	<path fill="#878787" d="M19.8,11h-2.4c-0.3,0-0.6,0.4-0.6,0.9v1.7h3v2.5h-3v7.5h-2.9v-7.5h-2.6v-2.5h2.6v-1.5
		c0-2.1,1.5-3.8,3.5-3.8h2.4V11z"/>
	<path fill="#878787" d="M16,31.7c-8.7,0-15.9-7.1-15.9-15.9S7.2,0,16,0c8.8,0,15.9,7.1,15.9,15.9S24.7,31.7,16,31.7z M16,1.1
		C7.8,1.1,1.2,7.7,1.2,15.9S7.8,30.7,16,30.7c8.2,0,14.8-6.6,14.8-14.8S24.2,1.1,16,1.1z"/>
</g>
</svg>
