<?xml version="1.0" encoding="utf-8"?>
<!-- Generator: Adobe Illustrator 18.0.0, SVG Export Plug-In . SVG Version: 6.00 Build 0)  -->
<!DOCTYPE svg PUBLIC "-//W3C//DTD SVG 1.1//EN" "http://www.w3.org/Graphics/SVG/1.1/DTD/svg11.dtd">
<svg version="1.1" id="Layer_1" xmlns="http://www.w3.org/2000/svg" xmlns:xlink="http://www.w3.org/1999/xlink" x="0px" y="0px"
	 viewBox="0 0 32 32" enable-background="new 0 0 32 32" xml:space="preserve">
<g>
	<path fill="#878787" d="M19.9,16c0,2.2-1.8,4-4,4c-2.2,0-4-1.8-4-4c0-0.3,0-0.5,0.1-0.8H9.2v5.4c0,1.2,0.9,2.1,2.1,2.1h9.2
		c1.2,0,2.1-0.9,2.1-2.1v-5.4h-2.7C19.9,15.5,19.9,15.7,19.9,16z M20.5,9.3h-9.2c-1.2,0-2.1,0.9-2.1,2.1v2.3h3.4
		c0.7-1,1.9-1.7,3.3-1.7c1.4,0,2.6,0.7,3.3,1.7h3.4v-2.3C22.5,10.3,21.6,9.3,20.5,9.3z M21.5,11.9c0,0.2-0.2,0.4-0.4,0.4H20
		c-0.2,0-0.4-0.2-0.4-0.4v-1.1c0-0.2,0.2-0.4,0.4-0.4h1.1c0.2,0,0.4,0.2,0.4,0.4V11.9z M18.4,16c0-1.4-1.1-2.5-2.5-2.5
		c-1.4,0-2.5,1.1-2.5,2.5s1.1,2.5,2.5,2.5C17.2,18.5,18.4,17.4,18.4,16z"/>
	<path fill="#878787" d="M15.9,31.9C7.1,31.9,0,24.8,0,16S7.1,0.1,15.9,0.1c8.8,0,15.9,7.1,15.9,15.9S24.6,31.9,15.9,31.9z
		 M15.9,1.2C7.7,1.2,1.1,7.8,1.1,16s6.6,14.8,14.8,14.8c8.2,0,14.8-6.6,14.8-14.8S24,1.2,15.9,1.2z"/>
</g>
</svg>
